<?xml version="1.0" encoding="UTF-8" standalone="no"?>
<!-- Created with Inkscape (http://www.inkscape.org/) -->

<svg
   xmlns:dc="http://purl.org/dc/elements/1.1/"
   xmlns:cc="http://creativecommons.org/ns#"
   xmlns:rdf="http://www.w3.org/1999/02/22-rdf-syntax-ns#"
   xmlns:svg="http://www.w3.org/2000/svg"
   xmlns="http://www.w3.org/2000/svg"
   xmlns:sodipodi="http://sodipodi.sourceforge.net/DTD/sodipodi-0.dtd"
   xmlns:inkscape="http://www.inkscape.org/namespaces/inkscape"
   width="744.09448"
   height="1052.3622"
   id="svg2"
   version="1.1"
   inkscape:version="0.48.4 r9939"
   sodipodi:docname="Deckblatt.svg">
  <defs
     id="defs4" />
  <sodipodi:namedview
     id="base"
     pagecolor="#ffffff"
     bordercolor="#666666"
     borderopacity="1.0"
     inkscape:pageopacity="0.0"
     inkscape:pageshadow="2"
     inkscape:zoom="0.98994949"
     inkscape:cx="220.15593"
     inkscape:cy="511.6011"
     inkscape:document-units="mm"
     inkscape:current-layer="layer3"
     showgrid="false"
     inkscape:window-width="1680"
     inkscape:window-height="1000"
     inkscape:window-x="0"
     inkscape:window-y="0"
     inkscape:window-maximized="1"
     showguides="true"
     inkscape:guide-bbox="true"
     units="mm"
     inkscape:snap-grids="false"
     inkscape:snap-bbox="true"
     inkscape:snap-bbox-midpoints="true"
     inkscape:snap-global="true"
     inkscape:snap-to-guides="true">
    <sodipodi:guide
       orientation="0,1"
       position="-35.433071,350.7874"
       id="guide3069" />
    <sodipodi:guide
       orientation="0,1"
       position="-35.433071,701.5748"
       id="guide3071" />
    <inkscape:grid
       units="mm"
       empspacing="10"
       visible="true"
       enabled="true"
       snapvisiblegridlinesonly="true"
       type="xygrid"
       id="grid3073" />
    <sodipodi:guide
       orientation="0,1"
       position="-35.433071,526.1811"
       id="guide3079" />
    <sodipodi:guide
       orientation="0,1"
       position="-35.433071,175.3937"
       id="guide3081" />
    <sodipodi:guide
       orientation="0,1"
       position="-35.433071,876.9685"
       id="guide3083" />
    <sodipodi:guide
       orientation="0,1"
       position="-35.433071,789.27165"
       id="guide3085" />
    <sodipodi:guide
       orientation="0,1"
       position="-35.433071,613.87795"
       id="guide3087" />
    <sodipodi:guide
       orientation="0,1"
       position="-35.433071,87.69685"
       id="guide3089" />
  </sodipodi:namedview>
  <metadata
     id="metadata7">
    <rdf:RDF>
      <cc:Work
         rdf:about="">
        <dc:format>image/svg+xml</dc:format>
        <dc:type
           rdf:resource="http://purl.org/dc/dcmitype/StillImage" />
        <dc:title />
      </cc:Work>
    </rdf:RDF>
  </metadata>
  <g
     inkscape:groupmode="layer"
     id="layer3"
     inkscape:label="Deckblatt"
     transform="translate(0,-2.5390623e-6)"
     style="display:inline">
    <g
       id="g3055"
       transform="translate(93.781433,248.90889)">
      <text
         sodipodi:linespacing="125%"
         id="text3047"
         y="434.14883"
         x="279.31418"
         style="font-size:16px;font-style:normal;font-variant:normal;font-weight:normal;font-stretch:normal;text-align:center;line-height:125%;letter-spacing:2.13999987px;word-spacing:0px;text-anchor:middle;fill:#000000;fill-opacity:1;stroke:none;font-family:EB Garamond 12 All SC;-inkscape-font-specification:EB Garamond 12 All SC"
         xml:space="preserve"><tspan
           y="434.14883"
           x="280.38419"
           id="tspan3049"
           sodipodi:role="line">jan dismas</tspan></text>
      <text
         sodipodi:linespacing="125%"
         id="text3051"
         y="452.66589"
         x="277.94019"
         style="font-size:12px;font-style:normal;font-variant:normal;font-weight:normal;font-stretch:normal;text-align:center;line-height:125%;letter-spacing:5.19000053px;word-spacing:0px;text-anchor:middle;fill:#d40000;fill-opacity:1;stroke:none;font-family:EB Garamond;-inkscape-font-specification:EB Garamond"
         xml:space="preserve"><tspan
           style="font-size:20px;letter-spacing:5.19000053px;fill:#d40000"
           y="452.66589"
           x="280.53519"
           id="tspan3053"
           sodipodi:role="line">ZELENKA</tspan></text>
    </g>
    <text
       xml:space="preserve"
       style="font-size:12px;font-style:normal;font-variant:normal;font-weight:normal;font-stretch:normal;text-align:center;line-height:110.00000238%;letter-spacing:0px;word-spacing:0px;text-anchor:middle;fill:#000000;fill-opacity:1;stroke:none;font-family:EB Garamond;-inkscape-font-specification:EB Garamond"
       x="372.26447"
       y="426.13623"
       id="text3061"
       sodipodi:linespacing="110%"><tspan
         sodipodi:role="line"
         x="372.26447"
         y="426.13623"
         id="tspan3067"
         style="font-size:14px;font-style:normal;line-height:110.00000238%;-inkscape-font-specification:EB Garamond">Da pacem Domine!</tspan><tspan
         sodipodi:role="line"
         x="372.26447"
         y="441.53622"
         style="font-size:14px;font-style:normal;line-height:110.00000238%;-inkscape-font-specification:EB Garamond"
         id="tspan3075" /><tspan
         sodipodi:role="line"
         x="372.26447"
         y="456.93622"
         style="font-size:14px;font-style:normal;line-height:110.00000238%;-inkscape-font-specification:EB Garamond"
         id="tspan3077">ZWV Z 167</tspan></text>
    <text
       xml:space="preserve"
       style="font-size:14px;font-style:normal;font-variant:normal;font-weight:normal;font-stretch:normal;text-align:center;line-height:125%;letter-spacing:1.84000015px;word-spacing:0px;text-anchor:middle;fill:#000000;fill-opacity:1;stroke:none;font-family:EB Garamond 12 All SC;-inkscape-font-specification:EB Garamond 12 All SC"
       x="372.06738"
       y="967.76636"
       id="text3099"
       sodipodi:linespacing="125%"><tspan
         sodipodi:role="line"
         x="372.9874"
         y="967.76636"
         id="tspan3023">full score</tspan></text>
    <text
       sodipodi:linespacing="110%"
       id="text3021"
       y="876.96851"
       x="371.86884"
       style="font-size:12px;font-style:normal;font-variant:normal;font-weight:normal;font-stretch:normal;text-align:center;line-height:110.00000238%;letter-spacing:0px;word-spacing:0px;text-anchor:middle;fill:#000000;fill-opacity:1;stroke:none;font-family:EB Garamond;-inkscape-font-specification:EB Garamond"
       xml:space="preserve"><tspan
         id="tspan3032"
         style="font-size:14px;font-style:normal;line-height:110.00000238%;-inkscape-font-specification:EB Garamond"
         y="876.96851"
         x="371.86884"
         sodipodi:role="line">2 Ob / 2 Vl / Va / SATB (coro I) / SATB (coro II) / BOrg</tspan></text>
    <g
       style="font-size:72px;font-style:normal;font-variant:normal;font-weight:normal;font-stretch:normal;text-align:center;line-height:125%;letter-spacing:0px;word-spacing:0px;text-anchor:middle;fill:none;stroke:#808080;stroke-width:0.625;stroke-miterlimit:4;stroke-dasharray:none;font-family:EB Garamond;-inkscape-font-specification:EB Garamond"
       id="text3027"
       transform="translate(167.75735,128.33367)">
      <path
         d="m -99.19236,118.84487 c 0,-1.584 3.168003,-2.304 6.264,-2.304 10.223989,0 18.36,7.77601 18.36,18.288 0,9.14399 -4.536009,18.792 -13.104,18.792 -9.647991,0 -11.52,-1.296 -11.52,-6.12 l 0,-28.656 m 8.64,-5.544 c -4.463996,0 -9.792,0.576 -14.256,0.576 -2.16,0 -3.528,-0.072 -5.76,-0.072 -1.512,0 -2.52,0.432 -2.52,1.296 0,0.648 0.504,1.008 1.152,1.224 4.104,1.224 5.904,1.22401 5.904,5.328 l 0,26.28 c 0,2.664 -1.008,4.104 -3.384,5.184 -1.584,0.72 -3.96,1.08 -3.96,2.16 0,0.792 1.584,1.152 2.376,1.224 0.504,0 4.752,-0.432 8.064,-0.432 3.311996,0 7.128006,0.792 13.968,0.792 15.479984,0 22.464,-11.01601 22.464,-23.472 0,-12.23999 -11.952013,-20.088 -24.048,-20.088"
         style="fill:none;stroke:#808080;stroke-width:0.625;stroke-miterlimit:4;stroke-dasharray:none"
         id="path3033"
         inkscape:connector-curvature="0" />
      <path
         d="m -46.070985,136.77287 5.04,-14.328 c 0.287999,-0.72 0.576,-0.936 0.792,-0.216 l 4.392,13.464 c 0.719999,2.304 0.647998,2.592 -0.792,2.592 l -8.784,0 c -1.295999,0 -1.08,-0.36 -0.648,-1.512 m 20.52,19.296 c 2.375997,0 4.968001,0.432 6.624,0.432 1.367998,0 2.088,-0.36 2.088,-1.152 0,-0.72 -0.648003,-1.44 -2.88,-2.232 -3.527997,-1.296 -4.320003,-3.24 -6.408,-9.072 l -9.504,-26.856 c -1.007999,-2.80799 -1.440002,-5.184 -2.664,-5.184 -0.432,0 -1.728002,2.016 -3.096,2.16 -0.792,0.072 -0.792002,1.00801 -2.016,4.104 l -11.016,30.456 c -1.079999,2.952 -1.008003,3.312 -3.384,4.392 -1.583999,0.72 -3.96,1.08 -3.96,2.16 0,0.792 1.008001,1.224 2.376,1.224 1.079998,0 2.736001,-0.432 4.536,-0.432 1.367998,0 4.536001,0.432 5.904,0.432 1.799998,0 2.52,-0.432 2.52,-1.224 0,-0.72 -0.792002,-1.512 -2.664,-2.016 -2.087998,-0.576 -2.016,-1.728 -1.584,-3.024 l 2.736,-7.848 c 0.287999,-0.72 0.792,-0.792 1.152,-0.792 l 12.024,0 c 0.575999,0 0.936,0.216 1.152,0.864 l 2.088,6.84 c 0.359999,1.224 0.503997,2.592 -2.088,3.816 -1.583999,0.72 -3.888,1.08 -3.888,2.16 0,0.792 1.368,1.224 2.304,1.224 2.159997,0 4.896004,-0.432 9.648,-0.432"
         style="fill:none;stroke:#808080;stroke-width:0.625;stroke-miterlimit:4;stroke-dasharray:none"
         id="path3035"
         inkscape:connector-curvature="0" />
      <path
         d="m 13.794765,117.90887 c 0,-1.08 1.008002,-1.656 3.6,-1.656 4.823995,0 9.072,3.52801 9.072,8.352 0,3.744 -1.584003,6.336 -4.392,8.712 -2.015998,1.728 -3.096,1.872 -3.096,2.592 0,0.864 0.504,1.224 1.296,1.224 0.791999,0 1.944002,0 4.608,-1.44 5.039994,-2.73599 8.784,-6.264 8.784,-12.168 0,-7.27199 -8.064008,-10.44 -15.336,-10.44 -6.407994,0 -9.3600068,0.216 -15.6960005,0.72 -1.5119985,0.072 -2.51999997,0.432 -2.51999997,1.296 0,0.648 0.50400064,1.008 1.15199997,1.224 4.1039959,1.152 5.904,1.22401 5.904,5.328 l 0,26.28 c 0,2.664 -0.9360024,4.104 -3.384,5.184 -1.5839984,0.72 -3.95999997,1.08 -3.95999997,2.16 0,0.72 1.58400077,1.152 2.37599997,1.224 0.5039995,0 4.8240031,-0.432 7.9200005,-0.432 3.455996,0 8.208,0.432 8.712,0.432 0.791999,-0.072 2.304,-0.504 2.304,-1.224 0,-1.08 -2.376002,-1.44 -3.96,-2.16 -2.447998,-1.08 -3.384,-2.52 -3.384,-5.184 l 0,-30.024"
         style="fill:none;stroke:#808080;stroke-width:0.625;stroke-miterlimit:4;stroke-dasharray:none"
         id="path3037"
         inkscape:connector-curvature="0" />
      <path
         d="m 54.054015,136.77287 5.04,-14.328 c 0.287999,-0.72 0.576,-0.936 0.792,-0.216 l 4.392,13.464 c 0.719999,2.304 0.647998,2.592 -0.792,2.592 l -8.784,0 c -1.295999,0 -1.08,-0.36 -0.648,-1.512 m 20.52,19.296 c 2.375997,0 4.968001,0.432 6.624,0.432 1.367998,0 2.088,-0.36 2.088,-1.152 0,-0.72 -0.648003,-1.44 -2.88,-2.232 -3.527997,-1.296 -4.320003,-3.24 -6.408,-9.072 l -9.504,-26.856 c -1.007999,-2.80799 -1.440002,-5.184 -2.664,-5.184 -0.432,0 -1.728002,2.016 -3.096,2.16 -0.792,0.072 -0.792002,1.00801 -2.016,4.104 l -11.016,30.456 c -1.079999,2.952 -1.008003,3.312 -3.384,4.392 -1.583999,0.72 -3.96,1.08 -3.96,2.16 0,0.792 1.008001,1.224 2.376,1.224 1.079998,0 2.736001,-0.432 4.536,-0.432 1.367998,0 4.536001,0.432 5.904,0.432 1.799998,0 2.52,-0.432 2.52,-1.224 0,-0.72 -0.792002,-1.512 -2.664,-2.016 -2.087998,-0.576 -2.016,-1.728 -1.584,-3.024 l 2.736,-7.848 c 0.287999,-0.72 0.792,-0.792 1.152,-0.792 l 12.024,0 c 0.575999,0 0.936,0.216 1.152,0.864 l 2.088,6.84 c 0.359999,1.224 0.503997,2.592 -2.088,3.816 -1.583999,0.72 -3.888,1.08 -3.888,2.16 0,0.792 1.368,1.224 2.304,1.224 2.159997,0 4.896004,-0.432 9.648,-0.432"
         style="fill:none;stroke:#808080;stroke-width:0.625;stroke-miterlimit:4;stroke-dasharray:none"
         id="path3039"
         inkscape:connector-curvature="0" />
      <path
         d="m 112.98151,112.58087 c -14.183981,0 -26.063995,9.79202 -26.063995,23.976 0,12.81599 12.528012,20.952 24.695995,20.952 4.032,0 9.07201,-0.792 11.952,-1.8 1.8,-0.648 2.16001,-1.152 3.312,-3.528 0.648,-1.368 2.88,-6.264 2.88,-6.84 0,-1.296 -0.576,-2.016 -1.152,-2.016 -0.57599,0 -1.008,0.144 -1.296,0.576 -3.81599,5.4 -5.472,10.44 -12.744,10.44 -11.44798,0 -19.583995,-9.79201 -19.583995,-20.808 0,-9.93599 7.272005,-17.712 16.559995,-17.712 5.112,0 12.02401,1.87201 13.032,5.04 0.936,3.024 1.80001,4.536 2.88,4.536 0.792,0 1.296,-0.792 1.296,-2.016 0,-3.95999 -0.504,-7.776 -2.16,-7.92 -1.65599,-0.144 -8.136,-2.88 -13.608,-2.88"
         style="fill:none;stroke:#808080;stroke-width:0.625;stroke-miterlimit:4;stroke-dasharray:none"
         id="path3041"
         inkscape:connector-curvature="0" />
      <path
         d="m 148.02639,130.72487 0,-12.096 c 0,-0.936 0.288,-1.512 2.232,-1.512 l 8.568,0 c 3.456,0 5.256,1.152 5.832,2.376 0.648,1.44 1.728,2.736 2.592,2.736 0.864,0 1.152,-1.008 1.152,-1.872 0,-0.792 -0.36,-4.752 -0.648,-5.904 -0.144,-0.648 -0.72,-1.008 -1.872,-1.008 -1.296,0 -5.544,0.36 -8.568,0.36 l -20.664,0 c -1.512,0 -2.52,0.432 -2.52,1.296 0,0.648 0.504,1.008 1.152,1.224 4.104,1.152 5.904,1.22401 5.904,5.328 l 0,26.28 c 0,2.664 -0.936,4.104 -3.384,5.184 -1.584,0.72 -3.96,1.08 -3.96,2.16 0,0.72 1.584,1.152 2.376,1.224 0.504,0 4.752,-0.36 8.136,-0.36 7.63199,0 20.664,0.36 23.328,0.36 1.224,0 1.368,-0.288 1.944,-1.368 0.576,-0.936 2.736,-6.264 2.736,-8.28 0,-1.08 -0.288,-1.8 -1.008,-1.8 -0.648,0 -1.584,0.576 -1.944,1.368 -2.088,4.392 -3.02401,6.696 -8.568,6.696 l -10.08,0 c -2.088,0 -2.736,-0.936 -2.736,-2.808 l 0,-12.096 c 0,-1.368 0.36,-1.728 1.728,-1.728 l 7.56,0 c 1.512,0 2.016,0.72 2.52,1.512 0.432,0.72 1.368,2.736 2.304,2.736 0.72,0 0.936,-1.152 0.936,-1.872 0,-0.792 -0.072,-3.024 -0.072,-4.104 0,-1.08 0.288,-3.6 0.288,-4.176 0,-0.864 -0.144,-1.44 -0.792,-1.44 -0.792,0 -1.44,1.08 -2.232,1.8 -1.296,1.224 -2.088,2.016 -4.392,2.016 l -6.192,0 c -1.008,0 -1.656,-0.504 -1.656,-2.232"
         style="fill:none;stroke:#808080;stroke-width:0.625;stroke-miterlimit:4;stroke-dasharray:none"
         id="path3043"
         inkscape:connector-curvature="0" />
      <path
         d="m 224.51626,147.06887 -1.224,-23.76 c -0.216,-4.10399 0.57601,-5.544 2.808,-6.48 2.88,-1.224 3.456,-1.44 3.456,-2.16 0,-0.72 -0.288,-1.224 -1.152,-1.224 -2.30399,0 -7.272,0.72 -9.144,0.72 -1.87199,0 -2.88,0 -3.672,1.656 l -11.304,23.472 c -1.36799,2.736 -1.656,1.584 -2.232,0.072 l -8.424,-20.664 c -1.36799,-3.23999 -2.592,-4.536 -4.536,-4.536 -3.31199,0 -5.4,-0.36 -7.992,-0.36 -0.86399,0 -2.448,-0.072 -2.448,1.008 0,1.152 2.59201,2.232 3.888,3.456 1.8,1.656 2.952,3.02401 2.304,8.136 l -2.448,19.152 c -0.50399,3.6 -1.728,6.48 -4.176,7.56 -1.65599,0.72 -3.96,1.08 -3.96,2.16 0,0.72 1.58401,1.152 2.376,1.224 0.504,0 3.24001,-0.432 6.624,-0.432 3.456,0 6.62401,0.432 7.128,0.432 0.792,-0.072 2.304,-0.504 2.304,-1.224 0,-1.08 -2.376,-1.44 -3.96,-2.16 -1.87199,-0.864 -2.376,-4.392 -2.232,-6.336 l 1.224,-20.088 c 0.072,-1.8 0.72001,-2.80799 1.8,-0.072 l 8.856,22.68 c 1.512,3.888 2.08801,4.464 2.808,4.464 0.648,0 3.672,-6.192 3.96,-6.84 l 9.72,-22.32 c 0.504,-1.296 1.8,-1.584 1.872,-0.216 l 0.936,22.68 c 0.144,2.664 -0.936,4.968 -3.384,6.048 -1.58399,0.72 -3.96,1.08 -3.96,2.16 0,0.72 1.58401,1.152 2.376,1.224 0.504,0 4.75201,-0.432 8.136,-0.432 3.456,0 8.20801,0.432 8.712,0.432 0.792,-0.072 2.304,-0.504 2.304,-1.224 0,-1.08 -2.376,-1.44 -3.96,-2.16 -2.44799,-1.08 -3.24,-3.384 -3.384,-6.048"
         style="fill:none;stroke:#808080;stroke-width:0.625;stroke-miterlimit:4;stroke-dasharray:none"
         id="path3045"
         inkscape:connector-curvature="0" />
      <path
         d="m 262.35451,118.84487 c 0,-1.584 3.16801,-2.304 6.264,-2.304 10.22399,0 18.36,7.77601 18.36,18.288 0,9.14399 -4.536,18.792 -13.104,18.792 -9.64799,0 -11.52,-1.296 -11.52,-6.12 l 0,-28.656 m 8.64,-5.544 c -4.46399,0 -9.792,0.576 -14.256,0.576 -2.15999,0 -3.528,-0.072 -5.76,-0.072 -1.51199,0 -2.52,0.432 -2.52,1.296 0,0.648 0.50401,1.008 1.152,1.224 4.104,1.224 5.904,1.22401 5.904,5.328 l 0,26.28 c 0,2.664 -1.008,4.104 -3.384,5.184 -1.58399,0.72 -3.96,1.08 -3.96,2.16 0,0.792 1.58401,1.152 2.376,1.224 0.504,0 4.75201,-0.432 8.064,-0.432 3.312,0 7.12801,0.792 13.968,0.792 15.47999,0 22.464,-11.01601 22.464,-23.472 0,-12.23999 -11.95201,-20.088 -24.048,-20.088"
         style="fill:none;stroke:#808080;stroke-width:0.625;stroke-miterlimit:4;stroke-dasharray:none"
         id="path3047"
         inkscape:connector-curvature="0" />
      <path
         d="m 310.00389,132.59687 c 0,-7.91999 5.76001,-15.984 13.68,-15.984 9.35999,0 14.328,10.22401 14.328,19.584 0,8.56799 -3.74401,17.712 -12.312,17.712 -10.00799,0 -15.696,-11.30401 -15.696,-21.312 m 16.416,-19.296 c -14.25599,0 -24.48,8.20802 -24.48,21.816 0,13.10399 9.86401,22.104 22.752,22.104 12.31199,0 21.384,-10.87201 21.384,-23.184 0,-10.51199 -9.86401,-20.736 -19.656,-20.736"
         style="fill:none;stroke:#808080;stroke-width:0.625;stroke-miterlimit:4;stroke-dasharray:none"
         id="path3049"
         inkscape:connector-curvature="0" />
      <path
         d="m 400.86001,147.06887 -1.224,-23.76 c -0.216,-4.10399 0.57601,-5.544 2.808,-6.48 2.88,-1.224 3.456,-1.44 3.456,-2.16 0,-0.72 -0.288,-1.224 -1.152,-1.224 -2.30399,0 -7.272,0.72 -9.144,0.72 -1.87199,0 -2.88,0 -3.672,1.656 l -11.304,23.472 c -1.36799,2.736 -1.656,1.584 -2.232,0.072 l -8.424,-20.664 c -1.36799,-3.23999 -2.592,-4.536 -4.536,-4.536 -3.31199,0 -5.4,-0.36 -7.992,-0.36 -0.86399,0 -2.448,-0.072 -2.448,1.008 0,1.152 2.59201,2.232 3.888,3.456 1.8,1.656 2.952,3.02401 2.304,8.136 l -2.448,19.152 c -0.50399,3.6 -1.728,6.48 -4.176,7.56 -1.65599,0.72 -3.96,1.08 -3.96,2.16 0,0.72 1.58401,1.152 2.376,1.224 0.504,0 3.24001,-0.432 6.624,-0.432 3.456,0 6.62401,0.432 7.128,0.432 0.792,-0.072 2.304,-0.504 2.304,-1.224 0,-1.08 -2.376,-1.44 -3.96,-2.16 -1.87199,-0.864 -2.376,-4.392 -2.232,-6.336 l 1.224,-20.088 c 0.072,-1.8 0.72001,-2.80799 1.8,-0.072 l 8.856,22.68 c 1.512,3.888 2.08801,4.464 2.808,4.464 0.648,0 3.672,-6.192 3.96,-6.84 l 9.72,-22.32 c 0.504,-1.296 1.8,-1.584 1.872,-0.216 l 0.936,22.68 c 0.144,2.664 -0.936,4.968 -3.384,6.048 -1.58399,0.72 -3.96,1.08 -3.96,2.16 0,0.72 1.58401,1.152 2.376,1.224 0.504,0 4.75201,-0.432 8.136,-0.432 3.456,0 8.20801,0.432 8.712,0.432 0.792,-0.072 2.304,-0.504 2.304,-1.224 0,-1.08 -2.376,-1.44 -3.96,-2.16 -2.44799,-1.08 -3.24,-3.384 -3.384,-6.048"
         style="fill:none;stroke:#808080;stroke-width:0.625;stroke-miterlimit:4;stroke-dasharray:none"
         id="path3051"
         inkscape:connector-curvature="0" />
      <path
         d="m 428.32801,113.80487 c -2.44799,0 -5.4,0.36 -7.92,0.36 -2.59199,0 -5.184,-0.36 -7.992,-0.36 -1.07999,0 -2.52,0.432 -2.52,1.296 0,0.648 0.50401,1.008 1.152,1.224 4.104,1.152 5.904,1.22401 5.904,5.328 l 0,26.28 c 0,2.664 -0.936,4.104 -3.384,5.184 -1.58399,0.72 -3.96,1.08 -3.96,2.16 0,0.72 1.58401,1.152 2.376,1.224 0.504,0 4.75201,-0.432 8.136,-0.432 3.456,0 8.20801,0.432 8.712,0.432 0.792,-0.072 2.304,-0.504 2.304,-1.224 0,-1.08 -2.376,-1.44 -3.96,-2.16 -2.44799,-1.08 -3.384,-2.52 -3.384,-5.184 l 0,-26.28 c 0,-4.10399 1.87201,-4.176 5.976,-5.328 0.648,-0.216 1.08,-0.576 1.08,-1.224 0,-0.864 -1.44,-1.296 -2.52,-1.296"
         style="fill:none;stroke:#808080;stroke-width:0.625;stroke-miterlimit:4;stroke-dasharray:none"
         id="path3053"
         inkscape:connector-curvature="0" />
      <path
         d="m 444.66076,147.06887 0,-18.36 c 0,-1.584 0.57601,-1.512 1.368,-0.72 l 22.392,24.84 c 2.736,3.024 5.32801,4.32 6.12,4.32 0.72,0 1.44,-0.144 1.44,-0.864 0,-1.944 -0.216,-2.52 -0.216,-5.904 l 0,-28.728 c 0,-4.17599 1.87201,-4.176 5.976,-5.328 0.648,-0.216 1.08,-0.576 1.08,-1.224 0,-0.864 -1.44,-1.296 -2.52,-1.296 -2.44799,0 -3.96,0.36 -6.48,0.36 -2.59199,0 -3.744,-0.36 -6.552,-0.36 -1.07999,0 -2.52,0.432 -2.52,1.296 0,0.648 0.50401,1.008 1.152,1.224 4.104,1.152 5.904,1.15201 5.904,5.328 l 0,22.032 c 0,1.44 -1.08,1.08 -2.016,0 l -23.976,-26.928 c -0.71999,-0.792 -2.232,-2.592 -3.816,-2.592 l -7.56,0 c -1.00799,0 -1.512,0.216 -1.512,0.792 0,1.296 2.73601,1.8 4.32,3.456 l 2.664,2.88 c 0.792,0.936 1.008,3.52801 1.008,6.984 l 0,18.792 c 0,2.736 -0.936,4.968 -3.384,6.048 -1.58399,0.72 -3.96,1.08 -3.96,2.16 0,0.72 1.58401,1.152 2.376,1.224 0.504,0 3.24001,-0.432 6.624,-0.432 3.456,0 6.62401,0.432 7.128,0.432 0.792,-0.072 2.304,-0.504 2.304,-1.224 0,-1.08 -2.376,-1.44 -3.96,-2.16 -2.44799,-1.08 -3.384,-3.312 -3.384,-6.048"
         style="fill:none;stroke:#808080;stroke-width:0.625;stroke-miterlimit:4;stroke-dasharray:none"
         id="path3055"
         inkscape:connector-curvature="0" />
      <path
         d="m 497.62014,130.72487 0,-12.096 c 0,-0.936 0.288,-1.512 2.232,-1.512 l 8.568,0 c 3.456,0 5.256,1.152 5.832,2.376 0.648,1.44 1.728,2.736 2.592,2.736 0.864,0 1.152,-1.008 1.152,-1.872 0,-0.792 -0.36,-4.752 -0.648,-5.904 -0.144,-0.648 -0.72,-1.008 -1.872,-1.008 -1.296,0 -5.544,0.36 -8.568,0.36 l -20.664,0 c -1.512,0 -2.52,0.432 -2.52,1.296 0,0.648 0.504,1.008 1.152,1.224 4.104,1.152 5.904,1.22401 5.904,5.328 l 0,26.28 c 0,2.664 -0.936,4.104 -3.384,5.184 -1.584,0.72 -3.96,1.08 -3.96,2.16 0,0.72 1.584,1.152 2.376,1.224 0.504,0 4.752,-0.36 8.136,-0.36 7.63199,0 20.664,0.36 23.328,0.36 1.224,0 1.368,-0.288 1.944,-1.368 0.576,-0.936 2.736,-6.264 2.736,-8.28 0,-1.08 -0.288,-1.8 -1.008,-1.8 -0.648,0 -1.584,0.576 -1.944,1.368 -2.088,4.392 -3.02401,6.696 -8.568,6.696 l -10.08,0 c -2.088,0 -2.736,-0.936 -2.736,-2.808 l 0,-12.096 c 0,-1.368 0.36,-1.728 1.728,-1.728 l 7.56,0 c 1.512,0 2.016,0.72 2.52,1.512 0.432,0.72 1.368,2.736 2.304,2.736 0.72,0 0.936,-1.152 0.936,-1.872 0,-0.792 -0.072,-3.024 -0.072,-4.104 0,-1.08 0.288,-3.6 0.288,-4.176 0,-0.864 -0.144,-1.44 -0.792,-1.44 -0.792,0 -1.44,1.08 -2.232,1.8 -1.296,1.224 -2.088,2.016 -4.392,2.016 l -6.192,0 c -1.008,0 -1.656,-0.504 -1.656,-2.232"
         style="fill:none;stroke:#808080;stroke-width:0.625;stroke-miterlimit:4;stroke-dasharray:none"
         id="path3057"
         inkscape:connector-curvature="0" />
    </g>
  </g>
</svg>
